<svg id="b089cfca-0de1-451c-a1ca-6680ea50cb4f" xmlns="http://www.w3.org/2000/svg" xmlns:xlink="http://www.w3.org/1999/xlink" viewBox="0 0 150 46.24"><defs><style>.cls-1{fill:url(#radial-gradient);}.cls-2{font-size:24px;fill:#fff;font-family:Calibri-Light, Calibri;font-weight:300;letter-spacing:0.05em;}.cls-3{letter-spacing:0.01em;}.cls-4{letter-spacing:0.05em;}.cls-5{letter-spacing:0.04em;}.cls-6{fill:#50e6ff;opacity:0.85;}</style><radialGradient id="radial-gradient" cx="-631.6" cy="413.2" r="14.98" gradientTransform="matrix(3.63, 0, 0, -3.67, 2368.85, 1537.66)" gradientUnits="userSpaceOnUse"><stop offset="0" stop-color="#5ea0ef"/><stop offset="0.42" stop-color="#0078d4"/></radialGradient></defs><path id="path59" class="cls-1" d="M149.45,19.07c-2.18-7.7-9.44-12.83-18.16-13.2H21.61a36.66,36.66,0,0,0-6.17.37h0C4.54,8.44-2,18,.55,27.13,2.73,35.19,11.08,40.32,19.8,40.32H131.29c1.09,0,2.18-.36,3.27-.36C145.46,37.76,152,28.6,149.45,19.07Z"/><text class="cls-2" transform="translate(4.18 31.23)">Cosmic<tspan class="cls-3" x="76.33" y="0">W</tspan><tspan class="cls-4" x="97.62" y="0">or</tspan><tspan class="cls-5" x="120.8" y="0">k</tspan><tspan x="132.35" y="0">s</tspan></text><path id="path61" class="cls-6" d="M107,5.87a2.71,2.71,0,0,0-.73-1.81C102.6-2.12,89.16-1,74.64,5.87h8c9.44-3.27,17.07-3.63,20,0l.37.36c3.63,5.82-6.18,17.8-21.43,27.24a99.6,99.6,0,0,1-14.17,6.9c-9.44,3.27-17.07,3.64-19.61,0H43c0,.73.36,1.09.73,1.82,3.63,6.17,17.07,5.08,31.59-1.82a76.4,76.4,0,0,0,7.63-4C99,26.57,109.14,13.5,107,5.87Z"/><path class="cls-6" d="M19.09,16.82a.36.36,0,0,1-.36-.35h0a4.08,4.08,0,0,0-4.08-4.08.36.36,0,0,1-.36-.36h0a.36.36,0,0,1,.36-.36h0a4.08,4.08,0,0,0,4.08-4.08.36.36,0,0,1,.35-.36h0a.37.37,0,0,1,.36.35h0a4.08,4.08,0,0,0,4.08,4.08.36.36,0,0,1,.36.36h0a.36.36,0,0,1-.35.36h0a4.08,4.08,0,0,0-4.08,4.08A.36.36,0,0,1,19.09,16.82Z"/><path class="cls-6" d="M130.81,39.47a.27.27,0,0,1-.28-.25h0a3.05,3.05,0,0,0-3.14-2.95.28.28,0,0,1-.28-.26h0a.28.28,0,0,1,.28-.26h0a3.05,3.05,0,0,0,3.14-2.94.27.27,0,0,1,.27-.26h0a.26.26,0,0,1,.27.25h0a3.05,3.05,0,0,0,3.14,2.94.28.28,0,0,1,.28.26h0a.27.27,0,0,1-.27.26h0a3.05,3.05,0,0,0-3.14,2.95A.26.26,0,0,1,130.81,39.47Z"/></svg>